<?xml version="1.0" encoding="utf-8"?>
<!-- Generator: Adobe Illustrator 16.0.0, SVG Export Plug-In . SVG Version: 6.00 Build 0)  -->
<!DOCTYPE svg PUBLIC "-//W3C//DTD SVG 1.1//EN" "http://www.w3.org/Graphics/SVG/1.1/DTD/svg11.dtd">
<svg version="1.1" id="Layer_1" xmlns="http://www.w3.org/2000/svg" xmlns:xlink="http://www.w3.org/1999/xlink" x="0px" y="0px"
	 width="225px" height="89px" viewBox="0 0 225 89" enable-background="new 0 0 225 89" xml:space="preserve">
<g>
	<g>
		<path fill="#EA5E9B" d="M31.782,9.225c0,1.438-0.284,2.865-0.853,4.285c-0.566,1.419-1.328,2.734-2.283,3.944
			c-0.957,1.211-2.058,2.271-3.306,3.178c-1.249,0.909-2.544,1.561-3.887,1.957l-0.597-0.993c0.795-0.396,1.523-0.908,2.186-1.532
			c0.662-0.625,1.229-1.329,1.702-2.114c0.473-0.784,0.836-1.618,1.093-2.496c0.254-0.88,0.382-1.774,0.382-2.683
			c0-1.038-0.15-2.023-0.455-2.95c-0.302-0.928-0.747-1.736-1.333-2.428c-0.586-0.689-1.311-1.234-2.17-1.63
			c-0.861-0.396-1.85-0.597-2.966-0.597c-1.361,0-2.61,0.266-3.745,0.795c-1.135,0.53-2.157,1.244-3.065,2.142
			c-0.908,0.899-1.698,1.93-2.37,3.094c-0.67,1.163-1.23,2.382-1.674,3.66C8,16.133,7.664,17.426,7.435,18.731
			c-0.225,1.305-0.339,2.534-0.339,3.688c0,1.172,0.124,2.384,0.37,3.632c0.246,1.248,0.604,2.478,1.076,3.689
			c0.474,1.211,1.061,2.355,1.76,3.433c0.7,1.078,1.509,2.024,2.426,2.837c0.917,0.813,1.94,1.462,3.065,1.944
			c1.124,0.482,2.35,0.723,3.674,0.723c0.908,0,1.792-0.122,2.653-0.368c0.861-0.245,1.688-0.576,2.483-0.993
			c0.794-0.416,1.547-0.908,2.256-1.476c0.709-0.567,1.366-1.181,1.972-1.844l0.937,0.907c-0.833,1.098-1.821,2.153-2.966,3.165
			c-1.145,1.012-2.379,1.91-3.702,2.697c-1.325,0.784-2.71,1.408-4.158,1.87c-1.448,0.464-2.88,0.697-4.299,0.697
			c-1.38,0-2.682-0.241-3.901-0.725c-1.221-0.481-2.34-1.135-3.363-1.957c-1.021-0.822-1.934-1.788-2.738-2.895
			c-0.804-1.106-1.485-2.285-2.043-3.532c-0.56-1.249-0.985-2.535-1.279-3.858c-0.292-1.324-0.438-2.621-0.438-3.887
			c0-1.835,0.308-3.722,0.921-5.662c0.616-1.938,1.463-3.821,2.542-5.647c1.077-1.824,2.35-3.55,3.815-5.179
			c1.467-1.625,3.046-3.044,4.739-4.255c1.692-1.211,3.461-2.17,5.307-2.88c1.843-0.709,3.684-1.063,5.519-1.063
			c1.135,0,2.194,0.165,3.177,0.497c0.984,0.33,1.835,0.808,2.554,1.433c0.718,0.624,1.286,1.399,1.702,2.326
			C31.575,6.974,31.782,8.033,31.782,9.225z"/>
		<path fill="#EA5E9B" d="M53.006,37.459c-0.661,0.85-1.384,1.644-2.171,2.381c-0.784,0.739-1.637,1.382-2.553,1.932
			c-0.918,0.548-1.886,0.982-2.909,1.304c-1.02,0.322-2.08,0.482-3.178,0.482c-1.399,0-2.686-0.25-3.859-0.751
			c-1.173-0.502-2.184-1.192-3.036-2.072c-0.851-0.878-1.514-1.919-1.988-3.121c-0.472-1.201-0.708-2.492-0.708-3.874
			c0-1.134,0.161-2.25,0.482-3.347c0.322-1.097,0.776-2.127,1.363-3.094c0.586-0.964,1.282-1.857,2.085-2.681
			c0.803-0.822,1.688-1.527,2.652-2.113c0.965-0.586,1.987-1.046,3.065-1.375c1.078-0.331,2.185-0.498,3.319-0.498
			c0.795,0,1.546,0.096,2.256,0.284s1.337,0.487,1.887,0.893c0.549,0.408,0.983,0.927,1.306,1.562
			c0.32,0.633,0.481,1.385,0.481,2.255c0,0.719-0.213,1.476-0.637,2.27c-0.427,0.793-0.986,1.589-1.676,2.383
			c-0.69,0.795-1.471,1.576-2.34,2.342c-0.87,0.767-1.755,1.475-2.653,2.128c-0.898,0.652-1.764,1.224-2.596,1.715
			c-0.833,0.493-1.56,0.872-2.184,1.136c0.698,0.87,1.514,1.58,2.44,2.128c0.926,0.549,1.909,0.822,2.95,0.822
			c0.662,0,1.333-0.126,2.013-0.383c0.683-0.255,1.339-0.581,1.974-0.978c0.633-0.398,1.238-0.832,1.816-1.305
			c0.577-0.474,1.092-0.918,1.547-1.334L53.006,37.459z M46.169,26.676c0-0.435-0.071-0.852-0.212-1.248
			c-0.143-0.397-0.345-0.743-0.611-1.037c-0.264-0.294-0.581-0.529-0.95-0.71c-0.369-0.179-0.79-0.27-1.264-0.27
			c-0.851,0-1.637,0.298-2.354,0.895c-0.719,0.595-1.338,1.33-1.858,2.199c-0.521,0.87-0.928,1.792-1.221,2.767
			c-0.293,0.974-0.438,1.829-0.438,2.567c0,0.72,0.112,1.458,0.339,2.214c0.227,0.757,0.539,1.484,0.936,2.186
			c0.757-0.417,1.579-0.994,2.468-1.732c0.89-0.736,1.718-1.546,2.484-2.425c0.766-0.879,1.404-1.794,1.915-2.74
			C45.913,28.397,46.169,27.508,46.169,26.676z"/>
		<path fill="#EA5E9B" d="M65.692,39.671c-0.228,0.492-0.516,0.956-0.866,1.39c-0.35,0.435-0.743,0.823-1.177,1.164
			c-0.436,0.339-0.914,0.611-1.434,0.808c-0.52,0.198-1.054,0.299-1.603,0.299c-1.475,0-2.549-0.412-3.22-1.235
			c-0.672-0.823-1.007-1.943-1.007-3.362V4.117l5.221-1.815v36.575c0,0.379,0.085,0.724,0.254,1.035
			c0.17,0.312,0.473,0.47,0.909,0.47c0.435,0,0.847-0.175,1.234-0.525c0.387-0.351,0.693-0.696,0.921-1.036L65.692,39.671z"/>
		<path fill="#EA5E9B" d="M87.059,37.459c-0.662,0.85-1.386,1.644-2.171,2.381c-0.786,0.739-1.635,1.382-2.554,1.932
			c-0.917,0.548-1.886,0.982-2.908,1.304c-1.021,0.322-2.081,0.482-3.178,0.482c-1.399,0-2.686-0.25-3.858-0.751
			c-1.173-0.502-2.185-1.192-3.036-2.072c-0.85-0.878-1.514-1.919-1.986-3.121c-0.474-1.201-0.71-2.492-0.71-3.874
			c0-1.134,0.162-2.25,0.483-3.347c0.321-1.097,0.775-2.127,1.363-3.094c0.586-0.964,1.279-1.857,2.084-2.681
			c0.804-0.822,1.688-1.527,2.654-2.113c0.964-0.586,1.987-1.046,3.063-1.375c1.08-0.331,2.186-0.498,3.32-0.498
			c0.794,0,1.547,0.096,2.256,0.284s1.338,0.487,1.887,0.893c0.548,0.408,0.983,0.927,1.305,1.562
			c0.322,0.633,0.483,1.385,0.483,2.255c0,0.719-0.213,1.476-0.639,2.27c-0.427,0.793-0.984,1.589-1.674,2.383
			c-0.69,0.795-1.471,1.576-2.34,2.342c-0.87,0.767-1.756,1.475-2.653,2.128c-0.898,0.652-1.765,1.224-2.598,1.715
			c-0.832,0.493-1.559,0.872-2.183,1.136c0.699,0.87,1.511,1.58,2.44,2.128c0.926,0.549,1.91,0.822,2.95,0.822
			c0.662,0,1.333-0.126,2.016-0.383c0.68-0.255,1.337-0.581,1.97-0.978c0.635-0.398,1.24-0.832,1.816-1.305
			c0.579-0.474,1.094-0.918,1.547-1.334L87.059,37.459z M80.222,26.676c0-0.435-0.071-0.852-0.214-1.248
			c-0.142-0.397-0.344-0.743-0.61-1.037s-0.581-0.529-0.951-0.71c-0.369-0.179-0.789-0.27-1.263-0.27
			c-0.849,0-1.635,0.298-2.354,0.895c-0.718,0.595-1.338,1.33-1.858,2.199c-0.521,0.87-0.927,1.792-1.219,2.767
			c-0.295,0.974-0.44,1.829-0.44,2.567c0,0.72,0.113,1.458,0.34,2.214c0.228,0.757,0.539,1.484,0.936,2.186
			c0.756-0.417,1.579-0.994,2.469-1.732c0.889-0.736,1.716-1.546,2.482-2.425c0.766-0.879,1.405-1.794,1.916-2.74
			C79.965,28.397,80.222,27.508,80.222,26.676z"/>
		<path fill="#EA5E9B" d="M109.392,31.726c0,1.343-0.327,2.71-0.981,4.101c-0.652,1.389-1.507,2.662-2.568,3.815
			c-1.058,1.155-2.264,2.095-3.617,2.824c-1.353,0.728-2.729,1.092-4.129,1.092c-1.304,0-2.458-0.221-3.461-0.667
			c-1.003-0.445-1.844-1.058-2.525-1.844c-0.681-0.785-1.195-1.711-1.547-2.781c-0.349-1.068-0.525-2.227-0.525-3.476V4.117
			l5.222-1.815v33.425c0,0.644,0.084,1.278,0.254,1.902c0.17,0.624,0.426,1.187,0.766,1.688c0.34,0.502,0.77,0.907,1.292,1.221
			c0.52,0.312,1.139,0.467,1.858,0.467c0.87,0,1.631-0.211,2.284-0.637c0.653-0.425,1.202-0.975,1.646-1.646
			c0.444-0.671,0.776-1.404,0.993-2.198c0.217-0.795,0.327-1.562,0.327-2.299c0-1.097-0.204-2.208-0.61-3.333
			c-0.408-1.125-0.97-2.144-1.688-3.051c-0.719-0.908-1.562-1.664-2.525-2.269c-0.964-0.607-1.997-0.954-3.092-1.051l4.709-3.49
			c1.022,0.341,2.009,0.876,2.965,1.604c0.956,0.728,1.802,1.574,2.539,2.539c0.738,0.964,1.325,2.014,1.76,3.15
			C109.173,29.456,109.392,30.592,109.392,31.726z"/>
		<path fill="#EA5E9B" d="M128.319,39.898c-0.341,0.53-0.758,1.006-1.249,1.432c-0.493,0.427-1.034,0.79-1.618,1.093
			c-0.585,0.302-1.201,0.539-1.844,0.71c-0.645,0.169-1.278,0.254-1.9,0.254c-0.834,0-1.547-0.157-2.143-0.468
			c-0.598-0.313-1.084-0.724-1.462-1.234c-0.379-0.512-0.657-1.107-0.837-1.788c-0.181-0.682-0.269-1.39-0.269-2.127
			c0-0.964,0.145-2,0.438-3.108c0.294-1.106,0.691-2.198,1.191-3.276c0.501-1.079,1.073-2.081,1.717-3.008
			c0.644-0.926,1.324-1.692,2.042-2.297c-0.66,0.435-1.384,0.775-2.169,1.021c-0.784,0.246-1.585,0.367-2.398,0.367
			c-0.585,0-1.097-0.045-1.532-0.14c-0.434-0.095-0.917-0.275-1.448-0.539l-2.95,6.157l-1.218-0.482l3.063-6.27
			c-0.323-0.228-0.667-0.515-1.036-0.866c-0.369-0.35-0.639-0.695-0.81-1.037l3.943-4.426c0.172,0.511,0.408,1.027,0.712,1.546
			c0.301,0.521,0.656,0.984,1.063,1.39c0.405,0.409,0.86,0.744,1.361,1.008c0.503,0.265,1.045,0.398,1.634,0.398
			c1.002,0,1.976-0.184,2.922-0.554s1.822-0.818,2.638-1.348l0.767,0.767c-0.719,0.662-1.44,1.396-2.171,2.199
			c-0.729,0.805-1.385,1.66-1.974,2.567c-0.585,0.908-1.057,1.864-1.416,2.867c-0.361,1.003-0.54,2.014-0.54,3.035
			c0,0.588,0.08,1.246,0.241,1.974s0.412,1.418,0.753,2.071c0.34,0.652,0.765,1.202,1.274,1.646
			c0.513,0.445,1.126,0.666,1.848,0.666c0.489,0,0.967-0.089,1.432-0.267c0.461-0.18,0.884-0.404,1.261-0.668L128.319,39.898z"/>
		<path fill="#EA5E9B" d="M153.431,39.614c-0.226,0.493-0.511,0.956-0.852,1.39c-0.342,0.436-0.731,0.824-1.179,1.165
			c-0.443,0.34-0.926,0.609-1.445,0.808c-0.521,0.199-1.064,0.3-1.632,0.3c-1.494,0-2.567-0.413-3.221-1.236
			c-0.651-0.822-0.977-1.944-0.977-3.362v-0.51c-0.344,0.644-0.726,1.287-1.152,1.928c-0.423,0.645-0.906,1.221-1.446,1.732
			c-0.538,0.511-1.14,0.927-1.802,1.248c-0.662,0.322-1.399,0.482-2.213,0.482c-1.231,0-2.318-0.237-3.262-0.709
			c-0.949-0.472-1.743-1.111-2.385-1.916c-0.644-0.803-1.125-1.744-1.448-2.822c-0.321-1.079-0.481-2.222-0.481-3.432
			c0-1.647,0.289-3.288,0.864-4.924c0.579-1.635,1.392-3.097,2.442-4.383c1.048-1.287,2.308-2.332,3.771-3.136
			c1.468-0.805,3.101-1.207,4.898-1.207c0.718,0,1.436,0.066,2.155,0.199c0.717,0.134,1.403,0.346,2.058,0.639
			c0.651,0.294,1.248,0.677,1.785,1.15c0.542,0.473,0.98,1.049,1.321,1.73l-4.228,1.788c-0.228-0.359-0.487-0.704-0.782-1.035
			c-0.292-0.331-0.614-0.62-0.964-0.866c-0.351-0.245-0.725-0.444-1.121-0.597c-0.397-0.15-0.812-0.227-1.247-0.227
			c-0.984,0-1.859,0.303-2.627,0.909c-0.764,0.607-1.418,1.353-1.956,2.241c-0.539,0.889-0.949,1.835-1.234,2.837
			c-0.283,1.004-0.427,1.912-0.427,2.724c0,0.72,0.072,1.528,0.216,2.427c0.141,0.897,0.392,1.745,0.75,2.539
			c0.359,0.794,0.832,1.467,1.418,2.015c0.589,0.549,1.322,0.822,2.214,0.822c0.701,0,1.306-0.156,1.816-0.467
			c0.512-0.313,0.945-0.719,1.307-1.221c0.357-0.501,0.655-1.077,0.892-1.73c0.237-0.653,0.418-1.32,0.539-2.002
			c0.121-0.68,0.21-1.356,0.257-2.029c0.045-0.67,0.072-1.271,0.072-1.801v-1.958l5.162-1.817V38.82
			c0,0.378,0.095,0.723,0.285,1.036c0.188,0.311,0.48,0.467,0.878,0.467c0.473,0,0.903-0.174,1.293-0.523
			c0.386-0.35,0.693-0.705,0.921-1.064L153.431,39.614z"/>
		<path fill="#EA5E9B" d="M178.885,49.654c-0.226,0.493-0.522,0.957-0.88,1.392c-0.359,0.438-0.762,0.823-1.208,1.163
			c-0.442,0.34-0.92,0.611-1.431,0.81s-1.042,0.298-1.589,0.298c-1.495,0-2.579-0.412-3.249-1.234
			c-0.674-0.824-1.007-1.944-1.007-3.362V27.186c0-0.132-0.006-0.288-0.016-0.468c-0.011-0.179-0.045-0.35-0.1-0.51
			c-0.058-0.161-0.132-0.299-0.227-0.411c-0.096-0.115-0.229-0.171-0.397-0.171c-0.528,0-1.063,0.322-1.604,0.964
			c-0.538,0.644-1.058,1.476-1.561,2.498c-0.502,1.021-0.964,2.167-1.391,3.433c-0.426,1.268-0.8,2.521-1.12,3.76
			c-0.322,1.24-0.573,2.397-0.753,3.476c-0.179,1.08-0.27,1.939-0.27,2.583l-5.166,1.816V25.087c0-0.378-0.092-0.724-0.279-1.036
			c-0.191-0.312-0.485-0.469-0.88-0.469c-0.477,0-0.905,0.178-1.291,0.525c-0.388,0.351-0.696,0.696-0.924,1.037l-0.768-0.853
			c0.23-0.472,0.518-0.93,0.868-1.375c0.35-0.445,0.748-0.837,1.189-1.178c0.444-0.34,0.93-0.608,1.448-0.809
			c0.521-0.198,1.066-0.297,1.631-0.297c1.477,0,2.54,0.411,3.193,1.234c0.651,0.823,0.978,1.935,0.978,3.334v9.251
			c0.173-0.777,0.401-1.661,0.696-2.654c0.293-0.993,0.646-2,1.063-3.022c0.417-1.022,0.885-2.019,1.405-2.993
			c0.521-0.974,1.093-1.844,1.717-2.611c0.624-0.766,1.306-1.38,2.045-1.843c0.734-0.464,1.531-0.696,2.382-0.696
			c0.889,0,1.561,0.194,2.015,0.582c0.453,0.388,0.778,0.879,0.978,1.476c0.198,0.595,0.308,1.254,0.326,1.971
			c0.02,0.719,0.03,1.41,0.03,2.073v22.13c0,0.379,0.093,0.722,0.283,1.033c0.188,0.312,0.482,0.469,0.881,0.469
			c0.433,0,0.845-0.175,1.232-0.524c0.387-0.349,0.696-0.695,0.923-1.036L178.885,49.654z"/>
		<path fill="#EA5E9B" d="M202.324,39.614c-0.227,0.493-0.519,0.956-0.88,1.39c-0.357,0.436-0.755,0.824-1.19,1.165
			c-0.437,0.34-0.912,0.609-1.433,0.808c-0.521,0.199-1.055,0.3-1.604,0.3c-1.494,0-2.577-0.413-3.248-1.236
			c-0.672-0.822-1.007-1.944-1.007-3.362v-0.51c-0.322,0.644-0.691,1.287-1.107,1.928c-0.418,0.645-0.893,1.221-1.434,1.732
			c-0.539,0.511-1.144,0.927-1.816,1.248c-0.671,0.322-1.424,0.482-2.256,0.482c-1.267,0-2.379-0.25-3.334-0.751
			c-0.955-0.502-1.754-1.173-2.396-2.014c-0.643-0.843-1.132-1.822-1.461-2.938c-0.332-1.115-0.496-2.289-0.496-3.518
			c0-1.588,0.245-3.187,0.737-4.796c0.49-1.607,1.21-3.063,2.154-4.369c0.946-1.306,2.11-2.371,3.49-3.192
			c1.382-0.824,2.963-1.235,4.74-1.235c1.097,0,2.155,0.265,3.179,0.796V4.117l5.249-1.815V38.82c0,0.378,0.088,0.723,0.27,1.036
			c0.18,0.311,0.477,0.467,0.895,0.467c0.433,0,0.839-0.174,1.218-0.523s0.683-0.705,0.908-1.064L202.324,39.614z M192.963,31.074
			v-6.043c-0.437-0.436-0.924-0.796-1.462-1.08c-0.538-0.282-1.131-0.426-1.773-0.426c-1.116,0-2.063,0.304-2.836,0.909
			c-0.776,0.606-1.413,1.363-1.902,2.27c-0.493,0.909-0.852,1.887-1.078,2.938c-0.229,1.048-0.341,2.027-0.341,2.935
			c0,0.72,0.07,1.528,0.214,2.427c0.141,0.898,0.385,1.741,0.735,2.524c0.351,0.786,0.813,1.448,1.394,1.987
			c0.576,0.539,1.299,0.808,2.169,0.808c0.701,0,1.309-0.156,1.83-0.467c0.519-0.313,0.96-0.719,1.318-1.221
			c0.359-0.501,0.654-1.077,0.881-1.73c0.228-0.653,0.401-1.32,0.525-2.002c0.122-0.68,0.207-1.356,0.254-2.029
			C192.937,32.205,192.963,31.604,192.963,31.074z"/>
		<path fill="#EA5E9B" d="M213.251,43.644c-1.4,0-2.709-0.252-3.932-0.752c-1.219-0.5-2.276-1.196-3.174-2.085
			c-0.901-0.889-1.609-1.933-2.131-3.136c-0.52-1.202-0.778-2.511-0.778-3.931c0-1.606,0.263-3.115,0.793-4.526
			c0.528-1.408,1.264-2.68,2.199-3.816c0.937-1.134,2.044-2.117,3.319-2.951c1.277-0.833,2.663-1.485,4.156-1.957l0.825,0.992
			c-0.853,0.624-1.647,1.34-2.385,2.143c-0.737,0.805-1.38,1.674-1.93,2.609c-0.549,0.937-0.982,1.921-1.306,2.952
			c-0.322,1.031-0.482,2.085-0.482,3.165c0,0.907,0.132,1.862,0.397,2.865c0.266,1.001,0.662,1.919,1.191,2.751
			c0.53,0.834,1.197,1.519,2.001,2.058c0.804,0.54,1.735,0.81,2.795,0.81c0.944,0,1.765-0.171,2.454-0.513
			c0.69-0.339,1.265-0.802,1.716-1.39c0.454-0.586,0.797-1.273,1.022-2.057c0.228-0.786,0.34-1.613,0.34-2.483
			c0-1.021-0.199-2.065-0.596-3.136c-0.396-1.068-0.941-2.055-1.63-2.964c-0.691-0.907-1.501-1.664-2.428-2.27
			c-0.927-0.605-1.919-0.955-2.979-1.05c0.664-0.756,1.393-1.456,2.186-2.101c0.794-0.642,1.599-1.257,2.411-1.844
			c1.1,0.359,2.068,0.89,2.909,1.589c0.841,0.7,1.551,1.505,2.128,2.413c0.577,0.906,1.017,1.896,1.32,2.964
			c0.303,1.069,0.453,2.152,0.453,3.25c0,1.494-0.26,2.979-0.779,4.454c-0.521,1.477-1.259,2.805-2.215,3.986
			c-0.954,1.184-2.1,2.138-3.433,2.866C216.358,43.28,214.878,43.644,213.251,43.644z"/>
	</g>
	<polygon fill="#EA5E9B" points="111.188,53.3 112.447,55.854 115.264,56.261 113.225,58.249 113.708,61.053 111.188,59.73 
		108.668,61.053 109.15,58.249 107.111,56.261 109.928,55.854 	"/>
	<g>
		<path fill="#EA5E9B" stroke="#EA5E9B" stroke-width="0.7683" stroke-miterlimit="10" d="M75.179,78.392l0.378,0.184l4.818-9.963
			l-0.377-0.185l0.056-0.114c1.406,0.682,2.823,1.364,4.229,2.043l-0.239,0.496l-0.115-0.059l0.184-0.377l-3.621-1.749l-2.853,5.898
			l2.953,1.43l0.179-0.372l0.117,0.056c-0.139,0.289-0.28,0.577-0.418,0.865l-0.115-0.055l0.179-0.37l-2.954-1.43l-1.905,3.941
			l0.377,0.183l-0.057,0.113l-0.872-0.419L75.179,78.392z"/>
		<path fill="#EA5E9B" stroke="#EA5E9B" stroke-width="0.7683" stroke-miterlimit="10" d="M89.026,72.331l0.042-0.122
			c0.301,0.104,0.604,0.209,0.906,0.313l-0.042,0.12l-0.388-0.134c-1.204,3.493-2.404,6.976-3.605,10.456l0.39,0.136l-0.046,0.128
			c-0.3-0.103-0.604-0.208-0.907-0.313l0.045-0.131l0.389,0.137c1.2-3.483,2.4-6.966,3.604-10.455L89.026,72.331z"/>
		<path fill="#EA5E9B" stroke="#EA5E9B" stroke-width="0.7683" stroke-miterlimit="10" d="M92.521,84.947l0.412,0.086l2.34-10.81
			l-0.411-0.089l0.027-0.125c1.536,0.333,3.065,0.665,4.602,0.998l-0.116,0.535l-0.135-0.03l0.09-0.409l-3.932-0.851l-1.385,6.404
			l3.207,0.695l0.087-0.404l0.125,0.028c-0.067,0.313-0.134,0.624-0.202,0.938l-0.126-0.026l0.089-0.414l-3.207-0.693l-0.927,4.28
			l3.931,0.85l0.088-0.4l0.134,0.028l-0.117,0.538c-1.537-0.333-3.064-0.665-4.603-0.996L92.521,84.947z"/>
		<path fill="#EA5E9B" stroke="#EA5E9B" stroke-width="0.7683" stroke-miterlimit="10" d="M109.185,78.249
			c0.037-1.153-0.87-2.145-2.01-2.218c-1.176-0.076-2.206,0.828-2.281,1.996c-0.186,2.892,4.19,4.089,3.989,7.062
			c-0.08,1.231-1.146,2.16-2.354,2.119c-1.243-0.043-2.245-1.105-2.202-2.357l-0.411-0.026l0.008-0.137l0.95,0.062l-0.011,0.137
			l-0.408-0.029c-0.046,1.555,1.558,2.676,3,2.044c0.715-0.31,1.236-1,1.289-1.82c0.193-2.892-4.18-4.088-3.98-7.062
			c0.127-1.987,2.637-2.87,3.979-1.345c0.376,0.425,0.595,0.988,0.576,1.584l0.409,0.026l-0.009,0.135l-0.947-0.06l0.008-0.138
			L109.185,78.249z"/>
		<path fill="#EA5E9B" stroke="#EA5E9B" stroke-width="0.7683" stroke-miterlimit="10" d="M118.298,86.953l0.418-0.039
			l-0.996-11.015l-2.719,0.247l0.037,0.419L114.9,76.58l-0.048-0.548l5.85-0.527l0.051,0.546l-0.136,0.011l-0.038-0.42l-2.721,0.248
			l0.996,11.012l0.406-0.035l0.015,0.137l-0.964,0.086L118.298,86.953z"/>
		<path fill="#EA5E9B" stroke="#EA5E9B" stroke-width="0.7683" stroke-miterlimit="10" d="M134.3,83.992l0.033,0.133
			c-0.31,0.079-0.62,0.158-0.929,0.238l-0.033-0.133l0.38-0.098l-2.053-3.982l-2.869,0.739l0.132,4.475l0.373-0.094l0.034,0.129
			c-0.311,0.082-0.619,0.163-0.929,0.243l-0.036-0.134l0.426-0.111L128.5,74.064l-0.365,0.096l-0.029-0.124
			c0.016-0.005,0.034-0.011,0.052-0.015c0,0,0.204-0.052,0.823-0.213c0.018-0.004,0.034-0.008,0.052-0.011l0.033,0.122l-0.363,0.094
			l5.174,10.088L134.3,83.992z M131.636,80.023l-3.007-5.849l0.192,6.575L131.636,80.023z"/>
		<path fill="#EA5E9B" stroke="#EA5E9B" stroke-width="0.7683" stroke-miterlimit="10" d="M141.448,71.63
			c-0.492-1.043-1.753-1.511-2.801-1.056c-1.081,0.469-1.583,1.743-1.116,2.816c1.154,2.659,5.594,1.725,6.772,4.461
			c0.491,1.13-0.033,2.443-1.124,2.959c-1.125,0.53-2.503,0.041-3.036-1.089l-0.378,0.163l-0.055-0.126l0.872-0.379l0.056,0.125
			l-0.378,0.164c0.67,1.402,2.609,1.666,3.603,0.447c0.495-0.604,0.644-1.457,0.314-2.21c-1.146-2.66-5.584-1.729-6.765-4.463
			c-0.792-1.825,1.036-3.76,2.925-3.017c0.529,0.209,0.982,0.609,1.236,1.147l0.376-0.165l0.055,0.124l-0.872,0.381l-0.054-0.127
			L141.448,71.63z"/>
	</g>
</g>
</svg>
